<svg xmlns="http://www.w3.org/2000/svg">
  <symbol id="arrow-right" viewBox="0 0 24 24">
    <path d="M5 12h14M13 6l6 6-6 6" fill="none" stroke="currentColor" stroke-width="2" stroke-linecap="round" stroke-linejoin="round"/>
  </symbol>
  <symbol id="archive" viewBox="0 0 24 24">
    <path d="M4 7h16M6 7v12h12V7M9 11h6" fill="none" stroke="currentColor" stroke-width="2" stroke-linecap="round" stroke-linejoin="round"/>
    <path d="M5 3h14l1 4H4l1-4z" fill="none" stroke="currentColor" stroke-width="2" stroke-linejoin="round"/>
  </symbol>
  <symbol id="book" viewBox="0 0 24 24">
    <path d="M4 5.5A3.5 3.5 0 0 1 7.5 2H20v18H7.5A3.5 3.5 0 0 0 4 23V5.5z" fill="none" stroke="currentColor" stroke-width="2" stroke-linejoin="round"/>
    <path d="M4 19.5A3.5 3.5 0 0 1 7.5 16H20" fill="none" stroke="currentColor" stroke-width="2" stroke-linecap="round"/>
  </symbol>
  <symbol id="branch" viewBox="0 0 24 24">
    <path d="M6 4v16M18 4v4a4 4 0 0 1-4 4H6" fill="none" stroke="currentColor" stroke-width="2" stroke-linecap="round"/>
    <circle cx="6" cy="4" r="2" fill="none" stroke="currentColor" stroke-width="2"/>
    <circle cx="6" cy="20" r="2" fill="none" stroke="currentColor" stroke-width="2"/>
    <circle cx="18" cy="4" r="2" fill="none" stroke="currentColor" stroke-width="2"/>
  </symbol>
  <symbol id="check" viewBox="0 0 24 24">
    <path d="M20 6 9 17l-5-5" fill="none" stroke="currentColor" stroke-width="2" stroke-linecap="round" stroke-linejoin="round"/>
  </symbol>
  <symbol id="code" viewBox="0 0 24 24">
    <path d="m8 9-4 3 4 3m8-6 4 3-4 3M14 4l-4 16" fill="none" stroke="currentColor" stroke-width="2" stroke-linecap="round" stroke-linejoin="round"/>
  </symbol>
  <symbol id="download" viewBox="0 0 24 24">
    <path d="M12 3v12m0 0 5-5m-5 5-5-5M5 21h14" fill="none" stroke="currentColor" stroke-width="2" stroke-linecap="round" stroke-linejoin="round"/>
  </symbol>
  <symbol id="external" viewBox="0 0 24 24">
    <path d="M14 4h6v6M20 4 10 14M20 14v5a1 1 0 0 1-1 1H5a1 1 0 0 1-1-1V5a1 1 0 0 1 1-1h5" fill="none" stroke="currentColor" stroke-width="2" stroke-linecap="round" stroke-linejoin="round"/>
  </symbol>
  <symbol id="github" viewBox="0 0 24 24">
    <path d="M12 .9a11.1 11.1 0 0 0-3.5 21.6c.55.1.75-.24.75-.53v-2c-3.05.66-3.7-1.3-3.7-1.3-.5-1.27-1.22-1.6-1.22-1.6-1-.68.08-.67.08-.67 1.1.08 1.68 1.14 1.68 1.14.98 1.67 2.57 1.19 3.2.9.1-.72.38-1.2.7-1.48-2.44-.28-5-1.22-5-5.42 0-1.2.42-2.18 1.13-2.95-.12-.28-.5-1.4.1-2.9 0 0 .93-.3 3.03 1.13A10.5 10.5 0 0 1 12 6.43c.94 0 1.88.13 2.76.38 2.1-1.43 3.03-1.13 3.03-1.13.6 1.5.22 2.62.1 2.9.7.77 1.13 1.75 1.13 2.95 0 4.22-2.57 5.14-5.02 5.41.4.35.75 1.02.75 2.06v2.97c0 .3.2.64.76.53A11.1 11.1 0 0 0 12 .9z" fill="currentColor"/>
  </symbol>
  <symbol id="image" viewBox="0 0 24 24">
    <rect x="3" y="5" width="18" height="14" rx="2" fill="none" stroke="currentColor" stroke-width="2"/>
    <path d="m3 16 5-5 4 4 3-3 6 6" fill="none" stroke="currentColor" stroke-width="2" stroke-linecap="round" stroke-linejoin="round"/>
    <circle cx="16.5" cy="9.5" r="1.5" fill="currentColor"/>
  </symbol>
  <symbol id="layers" viewBox="0 0 24 24">
    <path d="m12 3 9 5-9 5-9-5 9-5z" fill="none" stroke="currentColor" stroke-width="2" stroke-linejoin="round"/>
    <path d="m3 12 9 5 9-5M3 16l9 5 9-5" fill="none" stroke="currentColor" stroke-width="2" stroke-linecap="round" stroke-linejoin="round"/>
  </symbol>
  <symbol id="menu" viewBox="0 0 24 24">
    <path d="M4 6h16M4 12h16M4 18h16" fill="none" stroke="currentColor" stroke-width="2" stroke-linecap="round"/>
  </symbol>
  <symbol id="plug" viewBox="0 0 24 24">
    <path d="M8 2v5m8-5v5M6 7h12v4a6 6 0 0 1-12 0V7zm6 10v5" fill="none" stroke="currentColor" stroke-width="2" stroke-linecap="round" stroke-linejoin="round"/>
  </symbol>
  <symbol id="shield" viewBox="0 0 24 24">
    <path d="M12 3 20 6v5c0 5-3.4 8.7-8 10-4.6-1.3-8-5-8-10V6l8-3z" fill="none" stroke="currentColor" stroke-width="2" stroke-linejoin="round"/>
    <path d="m9 12 2 2 4-5" fill="none" stroke="currentColor" stroke-width="2" stroke-linecap="round" stroke-linejoin="round"/>
  </symbol>
  <symbol id="zap" viewBox="0 0 24 24">
    <path d="M13 2 4 14h7l-1 8 10-13h-7l0-7z" fill="none" stroke="currentColor" stroke-width="2" stroke-linejoin="round"/>
  </symbol>
  <symbol id="x" viewBox="0 0 24 24">
    <path d="m6 6 12 12M18 6 6 18" fill="none" stroke="currentColor" stroke-width="2" stroke-linecap="round"/>
  </symbol>
</svg>
